HIERARCHY
ROOT hip
{
  OFFSET 0 0 0
  CHANNELS 6 Xposition Yposition Zposition Zrotation Yrotation Xrotation
  JOINT abdomen
  {
    OFFSET 0 20.6881 -0.73152
    CHANNELS 3 Zrotation Xrotation Yrotation
    JOINT chest
    {
      OFFSET 0 11.7043 -0.48768
      CHANNELS 3 Zrotation Xrotation Yrotation
      JOINT neck
      {
        OFFSET 0 22.1894 -2.19456
        CHANNELS 3 Zrotation Xrotation Yrotation
        JOINT head
        {
          OFFSET -0.24384 7.07133 1.2192
          CHANNELS 3 Zrotation Xrotation Yrotation
          JOINT leftEye
          {
            OFFSET 4.14528 8.04674 8.04672
            CHANNELS 3 Zrotation Xrotation Yrotation
            End Site
            {
              OFFSET 1 0 0
            }
          }
          JOINT rightEye
          {
            OFFSET -3.6576 8.04674 8.04672
            CHANNELS 3 Zrotation Xrotation Yrotation
            End Site
            {
              OFFSET 1 0 0
            }
          }
        }
      }
      JOINT rCollar
      {
        OFFSET -2.68224 19.2634 -4.8768
        CHANNELS 3 Zrotation Xrotation Yrotation
        JOINT rShldr
        {
          OFFSET -8.77824 -1.95073 1.46304
          CHANNELS 3 Zrotation Xrotation Yrotation
          JOINT rForeArm
          {
            OFFSET -28.1742 -1.7115 0.48768
            CHANNELS 3 Zrotation Xrotation Yrotation
            JOINT rHand
            {
              OFFSET -22.5879 0.773209 7.07136
              CHANNELS 3 Zrotation Xrotation Yrotation
              JOINT rThumb1
              {
                OFFSET -1.2192 -0.487915 3.41376
                CHANNELS 3 Zrotation Xrotation Yrotation
                JOINT rThumb2
                {
                  OFFSET -3.37035 -0.52449 3.41376
                  CHANNELS 3 Zrotation Xrotation Yrotation
                  End Site
                  {
                    OFFSET -1.78271 -1.18214 1.43049
                  }
                }
              }
              JOINT rIndex1
              {
                OFFSET -7.75947 0.938293 5.60832
                CHANNELS 3 Zrotation Xrotation Yrotation
                JOINT rIndex2
                {
                  OFFSET -2.54057 -0.884171 1.56538
                  CHANNELS 3 Zrotation Xrotation Yrotation
                  End Site
                  {
                    OFFSET -1.62519 -0.234802 1.16502
                  }
                }
              }
              JOINT rMid1
              {
                OFFSET -8.24714 1.18213 3.41376
                CHANNELS 3 Zrotation Xrotation Yrotation
                JOINT rMid2
                {
                  OFFSET -3.10165 -0.590103 1.0647
                  CHANNELS 3 Zrotation Xrotation Yrotation
                  End Site
                  {
                    OFFSET -2.48547 -0.328903 0.83742
                  }
                }
              }
              JOINT rRing1
              {
                OFFSET -8.82822 0.546677 1.51678
                CHANNELS 3 Zrotation Xrotation Yrotation
                JOINT rRing2
                {
                  OFFSET -2.60934 -0.819778 -0.0198488
                  CHANNELS 3 Zrotation Xrotation Yrotation
                  End Site
                  {
                    OFFSET -2.33842 -0.294052 0.168128
                  }
                }
              }
              JOINT rPinky1
              {
                OFFSET -8.27202 -0.0477905 -0.4584
                CHANNELS 3 Zrotation Xrotation Yrotation
                JOINT rPinky2
                {
                  OFFSET -1.82734 -0.647385 -0.700984
                  CHANNELS 3 Zrotation Xrotation Yrotation
                  End Site
                  {
                    OFFSET -1.69225 -0.51767 -0.607171
                  }
                }
              }
            }
          }
        }
      }
      JOINT lCollar
      {
        OFFSET 2.68224 19.2634 -4.8768
        CHANNELS 3 Zrotation Xrotation Yrotation
        JOINT lShldr
        {
          OFFSET 8.77824 -1.95073 1.46304
          CHANNELS 3 Zrotation Xrotation Yrotation
          JOINT lForeArm
          {
            OFFSET 28.1742 -1.7115 0.48768
            CHANNELS 3 Zrotation Xrotation Yrotation
            JOINT lHand
            {
              OFFSET 22.5879 0.773209 7.07136
              CHANNELS 3 Zrotation Xrotation Yrotation
              JOINT lThumb1
              {
                OFFSET 1.2192 -0.487915 3.41376
                CHANNELS 3 Zrotation Xrotation Yrotation
                JOINT lThumb2
                {
                  OFFSET 3.37035 -0.52449 3.41376
                  CHANNELS 3 Zrotation Xrotation Yrotation
                  End Site
                  {
                    OFFSET 1.78271 -1.18214 1.43049
                  }
                }
              }
              JOINT lIndex1
              {
                OFFSET 7.75947 0.938293 5.60832
                CHANNELS 3 Zrotation Xrotation Yrotation
                JOINT lIndex2
                {
                  OFFSET 2.54057 -0.884171 1.56538
                  CHANNELS 3 Zrotation Xrotation Yrotation
                  End Site
                  {
                    OFFSET 1.62519 -0.234802 1.16502
                  }
                }
              }
              JOINT lMid1
              {
                OFFSET 8.24714 1.18213 3.41376
                CHANNELS 3 Zrotation Xrotation Yrotation
                JOINT lMid2
                {
                  OFFSET 3.10165 -0.590103 1.0647
                  CHANNELS 3 Zrotation Xrotation Yrotation
                  End Site
                  {
                    OFFSET 2.48547 -0.328903 0.83742
                  }
                }
              }
              JOINT lRing1
              {
                OFFSET 8.82822 0.546677 1.51678
                CHANNELS 3 Zrotation Xrotation Yrotation
                JOINT lRing2
                {
                  OFFSET 2.60934 -0.819778 -0.0198488
                  CHANNELS 3 Zrotation Xrotation Yrotation
                  End Site
                  {
                    OFFSET 2.33842 -0.294052 0.168128
                  }
                }
              }
              JOINT lPinky1
              {
                OFFSET 8.27202 -0.0477905 -0.4584
                CHANNELS 3 Zrotation Xrotation Yrotation
                JOINT lPinky2
                {
                  OFFSET 1.82734 -0.647385 -0.700984
                  CHANNELS 3 Zrotation Xrotation Yrotation
                  End Site
                  {
                    OFFSET 1.69225 -0.51767 -0.607171
                  }
                }
              }
            }
          }
        }
      }
    }
  }
  JOINT rButtock
  {
    OFFSET -8.77824 4.35084 1.2192
    CHANNELS 3 Zrotation Xrotation Yrotation
    JOINT rThigh
    {
      OFFSET 0 -1.70687 -2.19456
      CHANNELS 3 Zrotation Xrotation Yrotation
      JOINT rShin
      {
        OFFSET 0 -36.8199 0.73152
        CHANNELS 3 Zrotation Xrotation Yrotation
        JOINT rFoot
        {
          OFFSET 0.73152 -45.1104 -5.12064
          CHANNELS 3 Zrotation Xrotation Yrotation
          End Site
          {
            OFFSET -1.1221 -3.69964 12.103
          }
        }
      }
    }
  }
  JOINT lButtock
  {
    OFFSET 8.77824 4.35084 1.2192
    CHANNELS 3 Zrotation Xrotation Yrotation
    JOINT lThigh
    {
      OFFSET 0 -1.70687 -2.19456
      CHANNELS 3 Zrotation Xrotation Yrotation
      JOINT lShin
      {
        OFFSET 0 -36.8199 0.73152
        CHANNELS 3 Zrotation Xrotation Yrotation
        JOINT lFoot
        {
          OFFSET -0.73152 -45.1104 -5.12064
          CHANNELS 3 Zrotation Xrotation Yrotation
          End Site
          {
            OFFSET 1.1221 -3.69964 12.103
          }
        }
      }
    }
  }
}
MOTION
Frames:	5
Frame Time:	0.03333
0.0 0.0 0.0 0.0 0.0 0.0 0.0 0.0 0.0 0.0 0.0 0.0 0.0 0.0 0.0 0.0 0.0 0.0 0.0 0.0 0.0 0.0 0.0 0.0 0.0 0.0 0.0 0.0 0.0 0.0 0.0 0.0 0.0 0.0 0.0 0.0 0.0 0.0 0.0 0.0 0.0 0.0 0.0 0.0 0.0 0.0 0.0 0.0 0.0 0.0 0.0 0.0 0.0 0.0 0.0 0.0 0.0 0.0 0.0 0.0 0.0 0.0 0.0 0.0 0.0 0.0 0.0 0.0 0.0 0.0 0.0 0.0 0.0 0.0 0.0 0.0 0.0 0.0 0.0 0.0 0.0 0.0 0.0 0.0 0.0 0.0 0.0 0.0 0.0 0.0 0.0 0.0 0.0 0.0 0.0 0.0 0.0 0.0 0.0 0.0 0.0 0.0 0.0 0.0 0.0 0.0 0.0 0.0 0.0 0.0 0.0 0.0 0.0 0.0 0.0 0.0 0.0 0.0 0.0 0.0 0.0 0.0 0.0 0.0 0.0 0.0 0.0 0.0 0.0 0.0 0.0 0.0
-0.026 63.1032 0.2524 -22.835117 -31.51519 18.698559 2.512382 9.219239 164.683947 0.394459 6.925203 -152.636904 9.484996 20.55046 77.145029 -23.328773 -5.624407 -46.606905 -0.003811 -0.0 0.000108 0.002898 -0.0 -0.00434 -150.168728 21.535087 155.274878 -142.354575 3.257592 -136.37459 1.885802 -30.373572 87.409139 -8.049271 14.580452 -0.533075 93.028343 -51.084649 40.501009 -33.376503 3.546941 -8.73143 -77.666951 43.02902 64.538829 6.158585 -0.150335 -4.442715 0.04876 -0.138357 -0.02714 3.163336 0.193548 -0.001136 -31.708531 -66.109579 -46.281545 13.46571 24.829539 0.070817 -111.058735 -41.161271 -109.118534 -22.976766 -39.560244 -25.101489 155.460123 -3.227747 -161.777667 -115.512083 29.365396 151.687746 4.816398 0.905571 -88.082933 12.878202 -48.379531 12.54884 94.791955 37.82768 -54.283294 79.512117 -3.450319 -57.84533 27.608167 30.765889 -20.255938 62.545899 48.75637 -44.74106 8.417256 20.880369 -5.644946 4.885021 21.330004 -4.428418 -0.004333 1.854344 -0.583008 61.678654 -86.805931 83.07846 144.64568 10.416419 141.353328 148.122006 13.4583 142.100143 -179.983376 75.750078 -0.011375 149.488848 70.716659 28.891198 13.594695 54.509254 -134.933773 27.374673 -26.956445 99.56875 0.024939 0.001224 0.018704 101.48433 -53.208547 -76.589653 -72.282183 -63.731846 105.296479 49.304806 -12.358387 -17.682275
0.0051 63.082499999999996 0.3275 -22.928061 -31.423761 18.941652 4.8813 9.567794 -133.557237 8.305177 1.598031 145.266637 8.400618 18.595862 64.814114 -19.493024 -10.681808 -34.86901 0.000661 -0.0 -0.001039 0.000377 -0.0 -0.00028 0.117651 -0.714064 -0.158111 172.73103 27.879402 126.598778 176.205816 29.931915 -89.546842 -11.116156 22.762043 0.621763 -178.927743 -16.453595 89.421897 -152.956673 6.102314 82.301385 -134.540091 10.541589 112.29552 9.982637 -3.149088 -9.233703 89.034663 -81.393952 59.758987 2.970631 0.154679 0.196997 -72.966025 -72.141777 -89.990754 -150.97178 -0.738771 176.456594 -146.225706 15.470648 -142.747279 -76.30253 -52.929575 -75.867791 85.537294 68.18208 -88.688915 -82.377352 -26.283262 -115.424144 -10.007074 -41.692295 -92.281108 14.484451 -36.451852 9.208625 5.175665 5.02 -1.015626 37.272465 24.496603 -35.569745 0.326164 0.530243 -0.186522 -90.818231 -60.637682 -38.808793 10.974213 25.790457 -7.63852 170.105453 -26.001595 -144.281496 -0.006504 1.770334 -0.556906 156.671825 -27.66009 -175.093946 144.259277 9.236987 141.011403 128.010077 -27.852132 125.461657 -0.003908 0.000557 -0.001954 -8.422833 -3.100828 -69.932178 -39.639302 30.914722 128.769133 -29.414551 -23.846234 -96.63299 179.999183 75.750744 0.000418 -141.084738 -17.016004 -68.265598 -85.292063 39.253266 160.891643 -157.348863 -5.62126 75.508122
0.017499999999999998 63.0336 0.3798 -22.961965 -31.171214 19.304151 3.800481 13.158484 -16.267578 -0.217144 -11.520701 28.088847 9.946703 21.463883 82.305431 -24.850399 -3.444915 -51.576551 -0.000872 -0.0 0.004284 0.000208 -0.0 -0.001285 -155.417152 -2.951507 161.718356 -91.939922 -36.929026 -138.753579 -49.96993 67.312823 -70.8327 168.863763 -32.087564 141.481563 -178.927891 -16.453517 89.422123 25.518867 -67.988388 19.138468 24.075186 -42.306657 -5.558861 -84.34873 49.018989 69.632205 0.541716 -1.589917 -0.294109 0.324399 8.291236 1.285343 -0.01586 -1.323104 -0.41616 -15.509812 69.593235 28.529879 6.228425 18.78969 5.572045 -129.063953 -29.156968 -127.010522 -4.232714 -52.428756 10.340041 -83.49662 19.407551 17.644726 179.113099 15.991435 -57.807078 145.497102 29.601825 -128.584418 170.194596 -7.87714 -89.944032 141.615513 7.943643 -71.577459 151.353884 -17.158412 -121.132625 159.120721 -11.032165 -119.52396 0.571698 1.648209 -0.322556 173.4284 -34.990858 -143.841289 145.119436 0.185318 179.186901 -11.971566 31.797797 5.394914 -9.027366 28.891369 -7.892496 147.44884 10.265665 143.202159 0.000606 0.000837 0.001211 -9.329232 -2.306785 -0.0 28.165611 45.223719 67.950652 84.79762 71.494525 176.858746 -179.992921 75.748805 -0.006246 -142.703776 -16.721753 13.172509 88.682375 59.029122 13.065201 -119.811928 -50.741888 140.889635
-0.0053 62.951100000000004 0.4228 -23.03064 -31.033374 19.502701 1.510213 8.849417 138.957438 -3.743213 5.931394 -126.527548 7.181083 17.429466 55.309853 -15.963725 -14.431298 -25.60608 0.000344 0.0 0.003527 0.001409 -0.0 -0.002044 -3.767086 17.921165 4.640432 -62.050721 22.995631 28.843318 65.392668 18.32587 -168.175834 -162.685804 42.505537 135.306428 76.384872 -49.200253 28.87112 -13.783194 -39.090423 -29.669788 -46.208815 39.652394 36.318736 168.097034 -44.957281 103.509439 -125.644783 49.84031 115.274385 3.3843 0.073447 0.255747 -145.119047 0.185934 -179.1855 11.912955 29.602102 -5.642236 -20.14248 -33.376273 -19.315478 1.995988 -3.032057 -1.174859 153.04972 10.023239 -158.667587 166.313622 -71.151945 109.770454 -140.132255 -71.918593 134.270133 15.739393 -30.163195 7.428333 4.503828 4.381198 -0.859478 -53.830658 -69.953735 8.795069 145.489002 -6.527688 -118.751156 -30.933669 -39.554072 7.530125 0.338691 0.981982 -0.190543 -91.951796 -78.577248 -62.950849 145.099954 -1.520715 178.651563 144.867324 -50.91688 167.290839 163.640043 74.573987 150.519068 8.020559 -19.93968 9.461192 179.877727 75.749312 0.094241 151.812992 71.20181 -0.0 -8.382444 43.964503 36.388387 62.714909 -66.149077 -12.244135 -0.002192 -0.000251 -0.002192 100.988181 -52.809167 11.836826 -90.094489 16.96992 -27.676625 -18.753527 69.899185 105.162934
